Coordinates
version=1
nRows=6
nColumns=36
inDegrees=yes

Units are S.I. units (second, meters, Newtons, ...)
If the header above contains a line with 'inDegrees', this indicates whether rotational values are in degrees (yes) or radians (no).

endheader
time	pelvis_tilt	pelvis_list	pelvis_rotation	pelvis_tx	pelvis_ty	pelvis_tz	hip_flexion_r	hip_adduction_r	hip_rotation_r	knee_angle_r	knee_angle_r_beta	ankle_angle_r	subtalar_angle_r	mtp_angle_r	hip_flexion_l	hip_adduction_l	hip_rotation_l	knee_angle_l	knee_angle_l_beta	ankle_angle_l	subtalar_angle_l	mtp_angle_l	lumbar_extension	lumbar_bending	lumbar_rotation	arm_flex_r	arm_add_r	arm_rot_r	elbow_flex_r	pro_sup_r	arm_flex_l	arm_add_l	arm_rot_l	elbow_flex_l	pro_sup_l
      2.91666670	    -31.15031033	     -0.29630411	     -2.95195702	      0.62378265	      0.64188752	      0.11889215	     87.17100463	    -16.85502294	     -6.51787590	     81.37603420	      1.42027973	     23.26315472	    -23.72364279	     -7.49999987	     89.73609818	    -13.20398020	      2.21890482	     81.09025706	      1.41529198	     20.49201263	    -20.33319071	     -7.49999987	    -32.71884740	      3.15898470	      6.94406231	     54.75516297	    -17.06532420	     64.44022153	    124.99901477	     95.61744431	     56.27432279	     -5.06511537	     56.09779981	    125.77078493	    107.67345040
      2.93333330	    -31.22222836	     -0.33169448	     -2.87313064	      0.62873424	      0.64281433	      0.11603568	     87.52607090	    -16.88442737	     -6.28628707	     81.99885835	      1.43115006	     23.33955555	    -23.84193393	     -7.49999987	     90.21225194	    -13.14695706	      2.36346504	     81.74707516	      1.42675562	     20.56164633	    -20.41748223	     -7.49999987	    -33.54375842	      3.12682574	      7.17910760	     54.47749880	    -17.07405827	     64.76033390	    124.72314131	     95.65729968	     56.21634598	     -4.91308394	     56.08177341	    125.75944599	    107.66125765
      2.95000000	    -31.42605934	     -0.42400562	     -2.75526344	      0.61819792	      0.63579548	      0.12195040	     88.19957664	    -16.89298221	     -6.11166832	     82.79693703	      1.44507916	     23.48595980	    -23.95401833	     -7.49999987	     91.05667647	    -13.23221017	      2.48289354	     82.52588160	      1.44034835	     20.64878469	    -20.44966226	     -7.49999987	    -33.80151629	      2.92433454	      7.72058358	     54.83090069	    -16.89514773	     65.02172909	    124.43729601	     95.68114240	     56.88137795	     -4.71676495	     55.76335253	    125.87099036	    107.58425327
      2.96666670	    -32.28707125	     -0.51478932	     -2.92480561	      0.61793468	      0.63114250	      0.12191821	     89.56096557	    -16.53916094	     -6.01079420	     83.39823662	      1.45557382	     23.75653682	    -23.89084175	     -7.49999987	     92.64366959	    -13.67537962	      2.61653478	     83.25229584	      1.45302667	     20.78131346	    -20.14683983	     -7.49999987	    -33.34341023	      2.75024988	      8.29964831	     55.49619162	    -16.99346266	     67.01307511	    125.03926742	     95.32707215	     57.07451599	     -4.42071803	     55.98271966	    127.05194563	    106.42758034
      2.98333330	    -32.52027111	     -0.73349303	     -2.92768338	      0.61820883	      0.62662603	      0.12242025	     90.26303605	    -16.46378404	     -6.10319369	     84.09164719	      1.46767612	     23.91396302	    -24.05607007	     -7.49999987	     93.62755753	    -13.91142700	      2.89611455	     83.98989644	      1.46590023	     20.78888046	    -20.12944828	     -7.49999987	    -33.40792718	      2.93196874	      8.31519682	     56.25572082	    -17.03698181	     66.90872384	    125.23042342	     94.77767999	     57.21037911	     -4.43914705	     55.62993563	    127.50059563	    105.74397122
      3.00000000	    -32.64727503	     -0.95920556	     -2.96852714	      0.61816417	      0.62011218	      0.12239040	     90.94732505	    -16.37787234	     -6.15759132	     84.92644601	      1.48224610	     24.20261112	    -24.13559420	     -7.49999987	     94.58521257	    -14.14527022	      3.26234511	     84.85614672	      1.48101915	     20.80625497	    -20.12981470	     -7.49999987	    -33.46251537	      3.08381652	      8.40730932	     56.40547266	    -17.14325330	     64.70399541	    126.68251015	     95.56110218	     57.27452866	     -4.62048131	     55.63112747	    127.84001281	    107.16399854
